# xmcd
#
# Track frame offsets:
#	150
#	16067
#	36852
#	52894
#	63260
#	77877
#	91367
#	107897
#	126270
#	140364
#	152141
#	177377
#	196434
#
# Disc length: 2905 seconds
#
# Revision: 1
# Processed by: cddbd v1.5.2PL0 Copyright (c) Steve Scherf et al.
# Submitted via: audiograbber 1.83.01
#
DISCID=ab0b570d
DTITLE=Batlord - Music To Be Buried To
DYEAR=2004
DGENRE=Horror Garage
TTITLE0=The Seductor
TTITLE1=You're My Next Nightmare
TTITLE2=Undertaker
TTITLE3=I Know What You're Doing
TTITLE4=Torture Queen
TTITLE5=Running Towards Our Dying Day
TTITLE6=The Moper (El Abatido)
TTITLE7=Indoctrination Of The Will
TTITLE8=Just Because I Wish That You We're Dead (Doesn't Mean I Don't Love You)
TTITLE9=Eulogy For A Mind
TTITLE10=The Worst Of Dracula and Jesus Christ
TTITLE11=The Loner's Creed
TTITLE12=The Insomniac
EXTD=
EXTT0=
EXTT1=
EXTT2=
EXTT3=
EXTT4=
EXTT5=
EXTT6=
EXTT7=
EXTT8=
EXTT9=
EXTT10=
EXTT11=
EXTT12=
PLAYORDER=
